<svg xmlns="http://www.w3.org/2000/svg" viewBox="3540 7601 15241 9784" role="img" aria-label="Site Logo">
  <title>Site Logo</title>
  <g stroke-width="25" stroke-linejoin="round">

    <path fill="#FFF" stroke="#000" d="M6715 12431c64-204 418-407 889-407s825 203 890 407c0-280-402-509-890-509s-889 229-889 509z" />

    <path fill="#000" d="M17637 12490l-3810-4445-6164 4703-372-516 6350-4572c9-6 18-12 27-17 49-28 103-42 159-42s110 14 159 42c32 19 61 43 85 72l3566 4775z" />
    <path fill="#000" d="M4937 12494l3810 4445 6164-4703 372 516-6350 4572c-9 6-18 12-27 17-49 28-103 42-159 42s-110-14-159-42c-32-19-61-43-85-72l-3566-4775z" />

    <path fill="#FFF" stroke="#000" d="M9762 12429c174-319 806-637 1715-637 908 0 1540 318 1715 637 0-488-774-889-1715-889-942 0-1715 401-1715 889z" />

    <path fill="#FFF" stroke="#000" d="M14335 12431c64-204 418-407 889-407s825 203 890 407c0-280-402-509-890-509s-889 229-889 509z" />

    <path fill="#000" d="M12558 12491c0 223-59 442-170 635-112 193-272 353-465 465-193 111-412 170-635 170-224 0-443-59-636-170-193-112-353-272-465-465-111-193-170-412-170-635 0-224 59-443 170-636 112-193 272-353 465-465 193-111 412-170 635-170 224 0 443 59 636 170 193 112 353 272 465 465 111 193 170 412 170 635v1z" />
    <path fill="#000" d="M8113 12491c0 111-29 221-85 317-56 97-136 177-233 233-96 56-206 85-317 85-112 0-222-29-318-85-97-56-177-136-233-233-56-96-85-206-85-317 0-112 29-222 85-318 56-97 136-177 233-233 96-56 206-85 318-85 111 0 221 29 317 85 97 56 177 136 233 233 56 96 85 206 85 318z" />
    <path fill="#000" d="M15733 12491c0 111-29 221-85 317-56 97-136 177-233 233-96 56-206 85-317 85-112 0-222-29-318-85-97-56-177-136-233-233-56-96-85-206-85-317 0-112 29-222 85-318 56-97 136-177 233-233 96-56 206-85 318-85 111 0 221 29 317 85 97 56 177 136 233 233 56 96 85 206 85 318z" />

    <path fill="#FFF" stroke="#000" d="M8239 12429c-64 204-418 407-889 407s-825-203-890-407c0 280 402 509 890 509s889-229 889-509z" />

    <path fill="#000" d="M11160 12557l7620-127-7620-127-7620 127 7620 127z" />

    <path fill="#FFF" stroke="#000" d="M12811 12430c-174 319-806 637-1715 637-908 0-1540-318-1715-637 0 488 774 889 1715 889 942 0 1715-401 1715-889z" />

    <path fill="#FFF" stroke="#000" d="M15859 12429c-64 204-418 407-889 407s-825-203-890-407c0 280 402 509 890 509s889-229 889-509z" />
  </g>
</svg>
